<svg width="68" height="68" viewBox="0 0 68 68" fill="none" xmlns="http://www.w3.org/2000/svg">
<path d="M33.9485 0C38.6478 0 43.0636 0.89125 47.1957 2.67375C51.3279 4.45625 54.9334 6.88693 58.0123 9.9658C61.0911 13.0447 63.5218 16.6367 65.3043 20.7418C67.0868 24.847 67.9781 29.2492 67.9781 33.9485C67.9781 38.6478 67.0868 43.0636 65.3043 47.1957C63.5218 51.3279 61.0911 54.9334 58.0123 58.0123C54.9334 61.0911 51.3279 63.5218 47.1957 65.3043C43.0636 67.0868 38.6478 67.9781 33.9485 67.9781C29.2492 67.9781 24.847 67.0868 20.7418 65.3043C16.6367 63.5218 13.0447 61.0911 9.9658 58.0123C6.88693 54.9334 4.45625 51.3279 2.67375 47.1957C0.89125 43.0636 0 38.6478 0 33.9485C0 29.2492 0.89125 24.847 2.67375 20.7418C4.45625 16.6367 6.88693 13.0447 9.9658 9.9658C13.0447 6.88693 16.6367 4.45625 20.7418 2.67375C24.847 0.89125 29.2492 0 33.9485 0ZM46.7501 14.8272H39.5391C38.1347 14.8272 36.8383 15.0702 35.65 15.5564C34.4617 16.0425 33.4219 16.6907 32.5306 17.5009C31.6394 18.3111 30.9507 19.2294 30.4645 20.2557C29.9784 21.282 29.7353 22.3083 29.7353 23.3345V27.6287H23.3345V36.0551H29.7353V53.0699H38.2427V36.0551H44.5625V27.6287H38.2427V25.4411C38.2427 24.793 38.4993 24.2798 39.0124 23.9017C39.5256 23.5236 39.9712 23.3345 40.3493 23.3345H46.7501V14.8272Z" fill="black"/>
</svg>
