<svg width="68" height="51" viewBox="0 0 68 51" fill="none" xmlns="http://www.w3.org/2000/svg">
<path d="M4.63486 50.9969H15.4498V24.7324L0 13.145V46.362C0 48.9267 2.078 50.9969 4.63486 50.9969Z" fill="black"/>
<path d="M52.5284 50.9969H63.3432C65.9078 50.9969 67.978 48.9189 67.978 46.362V13.145L52.5284 24.7324" fill="black"/>
<path d="M52.5284 4.64818V24.7328L67.978 13.1454V6.96561C67.978 1.23368 61.4351 -2.03395 56.8543 1.40363" fill="black"/>
<path d="M15.4485 24.7326V4.64795L33.9882 18.5527L52.5279 4.64795V24.7326L33.9882 38.6374" fill="black"/>
<path d="M0 6.96561V13.1454L15.4498 24.7328V4.64818L11.1238 1.40363C6.53526 -2.03395 0 1.23368 0 6.96561Z" fill="black"/>
</svg>
