<svg width="68" height="68" viewBox="0 0 68 68" fill="none" xmlns="http://www.w3.org/2000/svg">
<path d="M47.79 23.548C47.4951 22.7841 47.0434 22.0905 46.4641 21.5118C45.8848 20.9331 45.1907 20.4822 44.4265 20.1881C43.3743 19.7983 42.2629 19.5924 41.1409 19.5791C39.275 19.4941 38.7156 19.4729 33.989 19.4729C29.2624 19.4729 28.703 19.4941 26.8372 19.5791C25.714 19.5919 24.6014 19.7979 23.548 20.1881C22.7842 20.483 22.0905 20.9347 21.5118 21.514C20.9331 22.0933 20.4822 22.7874 20.1881 23.5516C19.7984 24.6038 19.5924 25.7152 19.5791 26.8372C19.4941 28.703 19.4729 29.2624 19.4729 33.989C19.4729 38.7156 19.4941 39.275 19.5791 41.1409C19.592 42.2641 19.798 43.3767 20.1881 44.43C20.483 45.1939 20.9347 45.8875 21.514 46.4662C22.0933 47.0449 22.7874 47.4959 23.5516 47.79C24.6038 48.1797 25.7152 48.3857 26.8372 48.399C28.703 48.4839 29.2624 48.5016 33.989 48.5016C38.7156 48.5016 39.275 48.4839 41.1409 48.3954C42.2639 48.3837 43.3765 48.1789 44.43 47.79C45.1939 47.495 45.8875 47.0434 46.4662 46.4641C47.0449 45.8848 47.4959 45.1907 47.79 44.4265C48.1797 43.3743 48.3857 42.2629 48.399 41.1409C48.4839 39.275 48.5016 38.7156 48.5016 33.989C48.5016 29.2624 48.4839 28.703 48.3954 26.8372C48.3837 25.7142 48.1789 24.6016 47.79 23.548ZM33.989 43.0811C32.1908 43.0811 30.4329 42.5478 28.9378 41.5488C27.4426 40.5498 26.2772 39.1298 25.5891 37.4684C24.9009 35.807 24.7209 33.9789 25.0717 32.2152C25.4225 30.4516 26.2884 28.8315 27.56 27.56C28.8315 26.2884 30.4516 25.4225 32.2153 25.0717C33.979 24.7208 35.8071 24.9009 37.4684 25.5891C39.1298 26.2772 40.5498 27.4426 41.5488 28.9377C42.5479 30.4329 43.0811 32.1908 43.0811 33.989C43.0811 36.4004 42.1232 38.713 40.4181 40.4181C38.713 42.1232 36.4004 43.0811 33.989 43.0811ZM43.4387 26.6637C43.0185 26.6637 42.6078 26.5391 42.2585 26.3057C41.9091 26.0722 41.6369 25.7405 41.4761 25.3523C41.3153 24.9641 41.2732 24.537 41.3552 24.1249C41.4372 23.7129 41.6395 23.3343 41.9366 23.0373C42.2337 22.7402 42.6122 22.5378 43.0243 22.4559C43.4363 22.3739 43.8635 22.416 44.2516 22.5768C44.6398 22.7375 44.9716 23.0098 45.205 23.3592C45.4384 23.7085 45.563 24.1192 45.563 24.5394C45.563 25.1028 45.3392 25.6431 44.9408 26.0415C44.5424 26.4399 44.0021 26.6637 43.4387 26.6637ZM39.8911 33.989C39.8911 35.1563 39.5449 36.2974 38.8964 37.268C38.2479 38.2386 37.3261 38.9951 36.2477 39.4418C35.1692 39.8885 33.9825 40.0054 32.8376 39.7777C31.6927 39.5499 30.6411 38.9878 29.8157 38.1624C28.9902 37.337 28.4281 36.2853 28.2004 35.1405C27.9727 33.9956 28.0895 32.8089 28.5363 31.7304C28.983 30.6519 29.7394 29.7302 30.71 29.0816C31.6806 28.4331 32.8217 28.087 33.989 28.087C35.5544 28.087 37.0556 28.7088 38.1624 29.8156C39.2693 30.9225 39.8911 32.4237 39.8911 33.989ZM33.989 0C27.2666 0 20.6952 1.99342 15.1057 5.72818C9.51628 9.46294 5.15982 14.7713 2.58728 20.982C0.0147268 27.1927 -0.658369 34.0267 0.653105 40.62C1.96458 47.2132 5.20172 53.2694 9.95517 58.0229C14.7086 62.7763 20.7649 66.0135 27.3581 67.325C33.9513 68.6364 40.7854 67.9633 46.9961 65.3908C53.2068 62.8182 58.5151 58.4618 62.2499 52.8723C65.9846 47.2828 67.9781 40.7114 67.9781 33.989C67.9781 24.9746 64.3971 16.3293 58.0229 9.95515C51.6487 3.58098 43.0035 0 33.989 0ZM51.5854 41.286C51.5555 42.7551 51.2765 44.2085 50.7605 45.5842C50.3058 46.76 49.6105 47.8277 48.7191 48.7191C47.8278 49.6105 46.76 50.3058 45.5843 50.7605C44.2096 51.2761 42.7575 51.555 41.2896 51.5854C39.399 51.6704 38.7971 51.6916 33.989 51.6916C29.181 51.6916 28.5791 51.6704 26.6885 51.5854C25.2206 51.555 23.7685 51.2761 22.3938 50.7605C21.2181 50.3058 20.1503 49.6105 19.259 48.7191C18.3676 47.8277 17.6723 46.76 17.2176 45.5842C16.7019 44.2096 16.423 42.7575 16.3926 41.2896C16.3077 39.3989 16.2864 38.7971 16.2864 33.989C16.2864 29.181 16.3077 28.5791 16.3926 26.6885C16.4219 25.2208 16.6996 23.7687 17.214 22.3938C17.6687 21.2171 18.3644 20.1484 19.2564 19.2564C20.1484 18.3644 21.2171 17.6687 22.3938 17.214C23.7687 16.6996 25.2208 16.4219 26.6885 16.3926C28.5791 16.3077 29.181 16.2864 33.989 16.2864C38.7971 16.2864 39.399 16.3077 41.2896 16.3926C42.7573 16.4219 44.2094 16.6996 45.5843 17.214C46.7603 17.6691 47.8283 18.365 48.7197 19.257C49.6111 20.149 50.3062 21.2174 50.7605 22.3938C51.2761 23.7685 51.5551 25.2206 51.5854 26.6885C51.6704 28.5791 51.6917 29.181 51.6917 33.989C51.6917 38.7971 51.6704 39.3954 51.5854 41.286Z" fill="black"/>
</svg>
